<?xml version="1.0" standalone="no"?>
<svg xmlns="http://www.w3.org/2000/svg" xmlns:xlink="http://www.w3.org/1999/xlink" width="4193pt" height="332pt" viewBox="0.00 0.00 4192.92 332.00">
<g id="graph0" class="graph" transform="translate(4,328) scale(1)" data-name="G">

<polygon fill="white" stroke="none" points="-4,4 -4,-328 4188.92,-328 4188.92,4 -4,4" style=""/>
<!-- EarthfastProjects -->
<g id="node1" class="node" pointer-events="visible" data-name="EarthfastProjects">

<ellipse fill="none" stroke="black" cx="218.11" cy="-306" rx="77.01" ry="18" style=""/>
<text text-anchor="middle" x="218.11" y="-301.8" font-family="Times,serif" font-size="14.00" style="">EarthfastProjects</text>
</g>
<!-- AccessControlUpgradeable -->
<g id="node2" class="node" pointer-events="visible" data-name="AccessControlUpgradeable">

<ellipse fill="none" stroke="black" cx="482.11" cy="-234" rx="117.45" ry="18" style=""/>
<text text-anchor="middle" x="482.11" y="-229.8" font-family="Times,serif" font-size="14.00" style="">AccessControlUpgradeable</text>
</g>
<!-- EarthfastProjects&#45;&gt;AccessControlUpgradeable -->
<g id="edge1" class="edge" data-name="EarthfastProjects-&gt;AccessControlUpgradeable">

<path fill="none" stroke="black" d="M267.77,-291.83C309.17,-280.86 368.55,-265.11 414.32,-252.98" style=""/>
<polygon fill="black" stroke="black" points="415.12,-256.39 423.89,-250.44 413.32,-249.62 415.12,-256.39" style=""/>
</g>
<!-- PausableUpgradeable -->
<g id="node3" class="node" pointer-events="visible" data-name="PausableUpgradeable">

<ellipse fill="none" stroke="black" cx="712.11" cy="-234" rx="94.89" ry="18" style=""/>
<text text-anchor="middle" x="712.11" y="-229.8" font-family="Times,serif" font-size="14.00" style="">PausableUpgradeable</text>
</g>
<!-- EarthfastProjects&#45;&gt;PausableUpgradeable -->
<g id="edge2" class="edge" data-name="EarthfastProjects-&gt;PausableUpgradeable">

<path fill="none" stroke="black" d="M273.98,-293.31C283.99,-291.4 294.34,-289.54 304.11,-288 438.51,-266.79 473.39,-270.98 608.11,-252 615.81,-250.92 623.82,-249.72 631.82,-248.49" style=""/>
<polygon fill="black" stroke="black" points="632.26,-251.96 641.6,-246.96 631.17,-245.05 632.26,-251.96" style=""/>
</g>
<!-- ReentrancyGuardUpgradeable -->
<g id="node4" class="node" pointer-events="visible" data-name="ReentrancyGuardUpgradeable">

<ellipse fill="none" stroke="black" cx="218.11" cy="-234" rx="128.44" ry="18" style=""/>
<text text-anchor="middle" x="218.11" y="-229.8" font-family="Times,serif" font-size="14.00" style="">ReentrancyGuardUpgradeable</text>
</g>
<!-- EarthfastProjects&#45;&gt;ReentrancyGuardUpgradeable -->
<g id="edge3" class="edge" data-name="EarthfastProjects-&gt;ReentrancyGuardUpgradeable">

<path fill="none" stroke="black" d="M218.11,-287.7C218.11,-280.41 218.11,-271.73 218.11,-263.54" style=""/>
<polygon fill="black" stroke="black" points="221.61,-263.62 218.11,-253.62 214.61,-263.62 221.61,-263.62" style=""/>
</g>
<!-- UUPSUpgradeable -->
<g id="node5" class="node" pointer-events="visible" data-name="UUPSUpgradeable">

<ellipse fill="none" stroke="black" cx="910.11" cy="-234" rx="85.11" ry="18" style=""/>
<text text-anchor="middle" x="910.11" y="-229.8" font-family="Times,serif" font-size="14.00" style="">UUPSUpgradeable</text>
</g>
<!-- EarthfastProjects&#45;&gt;UUPSUpgradeable -->
<g id="edge4" class="edge" data-name="EarthfastProjects-&gt;UUPSUpgradeable">

<path fill="none" stroke="black" d="M273,-293.09C283.3,-291.16 294.01,-289.35 304.11,-288 530.23,-257.82 589.76,-280.34 816.11,-252 823.27,-251.1 830.71,-250.02 838.13,-248.84" style=""/>
<polygon fill="black" stroke="black" points="838.54,-252.32 847.84,-247.24 837.4,-245.41 838.54,-252.32" style=""/>
</g>
<!-- Initializable -->
<g id="node7" class="node" pointer-events="visible" data-name="Initializable">

<ellipse fill="none" stroke="black" cx="613.11" cy="-90" rx="57.3" ry="18" style=""/>
<text text-anchor="middle" x="613.11" y="-85.8" font-family="Times,serif" font-size="14.00" style="">Initializable</text>
</g>
<!-- AccessControlUpgradeable&#45;&gt;Initializable -->
<g id="edge5" class="edge" data-name="AccessControlUpgradeable-&gt;Initializable">

<path fill="none" stroke="black" d="M484.3,-215.73C487.55,-196.29 495.32,-164.73 513.11,-144 526.59,-128.3 545.91,-116.54 563.98,-108.15" style=""/>
<polygon fill="black" stroke="black" points="565.27,-111.4 573.03,-104.19 562.47,-104.99 565.27,-111.4" style=""/>
</g>
<!-- ContextUpgradeable -->
<g id="node8" class="node" pointer-events="visible" data-name="ContextUpgradeable">

<ellipse fill="none" stroke="black" cx="613.11" cy="-162" rx="90.89" ry="18" style=""/>
<text text-anchor="middle" x="613.11" y="-157.8" font-family="Times,serif" font-size="14.00" style="">ContextUpgradeable</text>
</g>
<!-- AccessControlUpgradeable&#45;&gt;ContextUpgradeable -->
<g id="edge6" class="edge" data-name="AccessControlUpgradeable-&gt;ContextUpgradeable">

<path fill="none" stroke="black" d="M513.49,-216.23C531.2,-206.77 553.53,-194.84 572.55,-184.67" style=""/>
<polygon fill="black" stroke="black" points="573.94,-187.9 581.11,-180.1 570.64,-181.73 573.94,-187.9" style=""/>
</g>
<!-- IAccessControlUpgradeable -->
<g id="node9" class="node" pointer-events="visible" data-name="IAccessControlUpgradeable">

<ellipse fill="none" stroke="black" cx="346.11" cy="-162" rx="120.38" ry="18" style=""/>
<text text-anchor="middle" x="346.11" y="-157.8" font-family="Times,serif" font-size="14.00" style="">IAccessControlUpgradeable</text>
</g>
<!-- AccessControlUpgradeable&#45;&gt;IAccessControlUpgradeable -->
<g id="edge7" class="edge" data-name="AccessControlUpgradeable-&gt;IAccessControlUpgradeable">

<path fill="none" stroke="black" d="M449.54,-216.23C431.29,-206.84 408.31,-195.01 388.65,-184.9" style=""/>
<polygon fill="black" stroke="black" points="390.26,-181.79 379.77,-180.32 387.06,-188.01 390.26,-181.79" style=""/>
</g>
<!-- ERC165Upgradeable -->
<g id="node10" class="node" pointer-events="visible" data-name="ERC165Upgradeable">

<ellipse fill="none" stroke="black" cx="114.11" cy="-162" rx="93.77" ry="18" style=""/>
<text text-anchor="middle" x="114.11" y="-157.8" font-family="Times,serif" font-size="14.00" style="">ERC165Upgradeable</text>
</g>
<!-- AccessControlUpgradeable&#45;&gt;ERC165Upgradeable -->
<g id="edge8" class="edge" data-name="AccessControlUpgradeable-&gt;ERC165Upgradeable">

<path fill="none" stroke="black" d="M410.29,-219.34C346.82,-207.26 254.55,-189.71 189.91,-177.42" style=""/>
<polygon fill="black" stroke="black" points="190.95,-174.05 180.47,-175.62 189.64,-180.93 190.95,-174.05" style=""/>
</g>
<!-- PausableUpgradeable&#45;&gt;Initializable -->
<g id="edge17" class="edge" data-name="PausableUpgradeable-&gt;Initializable">

<path fill="none" stroke="black" d="M717.39,-215.54C722.05,-196.5 726.26,-165.85 713.11,-144 702.7,-126.69 684.52,-114.73 666.49,-106.63" style=""/>
<polygon fill="black" stroke="black" points="667.93,-103.43 657.35,-102.86 665.26,-109.91 667.93,-103.43" style=""/>
</g>
<!-- PausableUpgradeable&#45;&gt;ContextUpgradeable -->
<g id="edge18" class="edge" data-name="PausableUpgradeable-&gt;ContextUpgradeable">

<path fill="none" stroke="black" d="M688.4,-216.23C675.67,-207.23 659.77,-195.99 645.87,-186.16" style=""/>
<polygon fill="black" stroke="black" points="648.06,-183.42 637.87,-180.5 644.01,-189.13 648.06,-183.42" style=""/>
</g>
<!-- ReentrancyGuardUpgradeable&#45;&gt;Initializable -->
<g id="edge19" class="edge" data-name="ReentrancyGuardUpgradeable-&gt;Initializable">

<path fill="none" stroke="black" d="M120.3,-222.06C49.1,-210.31 -28.45,-187.2 11.11,-144 28.98,-124.49 392.41,-102.82 545.77,-94.51" style=""/>
<polygon fill="black" stroke="black" points="545.57,-98.02 555.37,-93.99 545.19,-91.03 545.57,-98.02" style=""/>
</g>
<!-- UUPSUpgradeable&#45;&gt;Initializable -->
<g id="edge12" class="edge" data-name="UUPSUpgradeable-&gt;Initializable">

<path fill="none" stroke="black" d="M978.93,-223.12C1004.73,-215.7 1031.54,-202.72 1047.11,-180 1056.16,-166.8 1057.72,-155.98 1047.11,-144 1023.25,-117.05 796.48,-100.94 680.59,-94.4" style=""/>
<polygon fill="black" stroke="black" points="681.09,-90.92 670.91,-93.86 680.7,-97.91 681.09,-90.92" style=""/>
</g>
<!-- IERC1822ProxiableUpgradeable -->
<g id="node14" class="node" pointer-events="visible" data-name="IERC1822ProxiableUpgradeable">

<ellipse fill="none" stroke="black" cx="899.11" cy="-162" rx="138.88" ry="18" style=""/>
<text text-anchor="middle" x="899.11" y="-157.8" font-family="Times,serif" font-size="14.00" style="">IERC1822ProxiableUpgradeable</text>
</g>
<!-- UUPSUpgradeable&#45;&gt;IERC1822ProxiableUpgradeable -->
<g id="edge13" class="edge" data-name="UUPSUpgradeable-&gt;IERC1822ProxiableUpgradeable">

<path fill="none" stroke="black" d="M907.4,-215.7C906.24,-208.32 904.85,-199.52 903.55,-191.25" style=""/>
<polygon fill="black" stroke="black" points="907.05,-190.93 902.04,-181.6 900.13,-192.02 907.05,-190.93" style=""/>
</g>
<!-- ERC1967UpgradeUpgradeable -->
<g id="node15" class="node" pointer-events="visible" data-name="ERC1967UpgradeUpgradeable">

<ellipse fill="none" stroke="black" cx="1226.11" cy="-162" rx="131.92" ry="18" style=""/>
<text text-anchor="middle" x="1226.11" y="-157.8" font-family="Times,serif" font-size="14.00" style="">ERC1967UpgradeUpgradeable</text>
</g>
<!-- UUPSUpgradeable&#45;&gt;ERC1967UpgradeUpgradeable -->
<g id="edge14" class="edge" data-name="UUPSUpgradeable-&gt;ERC1967UpgradeUpgradeable">

<path fill="none" stroke="black" d="M967.34,-220.32C1017.86,-209.13 1091.98,-192.71 1147.96,-180.31" style=""/>
<polygon fill="black" stroke="black" points="1148.41,-183.8 1157.42,-178.22 1146.9,-176.96 1148.41,-183.8" style=""/>
</g>
<!-- EnumerableSet -->
<g id="node6" class="node" pointer-events="visible" data-name="EnumerableSet">

<ellipse fill="none" stroke="black" cx="1289.11" cy="-306" rx="70.06" ry="18" style=""/>
<text text-anchor="middle" x="1289.11" y="-301.8" font-family="Times,serif" font-size="14.00" style="">EnumerableSet</text>
</g>
<!-- ContextUpgradeable&#45;&gt;Initializable -->
<g id="edge9" class="edge" data-name="ContextUpgradeable-&gt;Initializable">

<path fill="none" stroke="black" d="M613.11,-143.7C613.11,-136.41 613.11,-127.73 613.11,-119.54" style=""/>
<polygon fill="black" stroke="black" points="616.61,-119.62 613.11,-109.62 609.61,-119.62 616.61,-119.62" style=""/>
</g>
<!-- ERC165Upgradeable&#45;&gt;Initializable -->
<g id="edge10" class="edge" data-name="ERC165Upgradeable-&gt;Initializable">

<path fill="none" stroke="black" d="M182.77,-149.37C194.23,-147.51 206,-145.66 217.11,-144 334.16,-126.51 471.08,-108.79 549.4,-98.92" style=""/>
<polygon fill="black" stroke="black" points="549.53,-102.43 559.01,-97.71 548.66,-95.49 549.53,-102.43" style=""/>
</g>
<!-- IERC165Upgradeable -->
<g id="node13" class="node" pointer-events="visible" data-name="IERC165Upgradeable">

<ellipse fill="none" stroke="black" cx="114.11" cy="-90" rx="96.7" ry="18" style=""/>
<text text-anchor="middle" x="114.11" y="-85.8" font-family="Times,serif" font-size="14.00" style="">IERC165Upgradeable</text>
</g>
<!-- ERC165Upgradeable&#45;&gt;IERC165Upgradeable -->
<g id="edge11" class="edge" data-name="ERC165Upgradeable-&gt;IERC165Upgradeable">

<path fill="none" stroke="black" d="M114.11,-143.7C114.11,-136.41 114.11,-127.73 114.11,-119.54" style=""/>
<polygon fill="black" stroke="black" points="117.61,-119.62 114.11,-109.62 110.61,-119.62 117.61,-119.62" style=""/>
</g>
<!-- AddressUpgradeable -->
<g id="node11" class="node" pointer-events="visible" data-name="AddressUpgradeable">

<ellipse fill="none" stroke="black" cx="1632.11" cy="-306" rx="92.03" ry="18" style=""/>
<text text-anchor="middle" x="1632.11" y="-301.8" font-family="Times,serif" font-size="14.00" style="">AddressUpgradeable</text>
</g>
<!-- StringsUpgradeable -->
<g id="node12" class="node" pointer-events="visible" data-name="StringsUpgradeable">

<ellipse fill="none" stroke="black" cx="1911.11" cy="-306" rx="87.97" ry="18" style=""/>
<text text-anchor="middle" x="1911.11" y="-301.8" font-family="Times,serif" font-size="14.00" style="">StringsUpgradeable</text>
</g>
<!-- ERC1967UpgradeUpgradeable&#45;&gt;Initializable -->
<g id="edge15" class="edge" data-name="ERC1967UpgradeUpgradeable-&gt;Initializable">

<path fill="none" stroke="black" d="M1128.34,-149.58C1112.23,-147.7 1095.71,-145.79 1080.11,-144 936.45,-127.48 767.87,-108.43 677.74,-98.27" style=""/>
<polygon fill="black" stroke="black" points="678.18,-94.8 667.85,-97.16 677.4,-101.76 678.18,-94.8" style=""/>
</g>
<!-- IERC1967Upgradeable -->
<g id="node16" class="node" pointer-events="visible" data-name="IERC1967Upgradeable">

<ellipse fill="none" stroke="black" cx="1226.11" cy="-90" rx="101.86" ry="18" style=""/>
<text text-anchor="middle" x="1226.11" y="-85.8" font-family="Times,serif" font-size="14.00" style="">IERC1967Upgradeable</text>
</g>
<!-- ERC1967UpgradeUpgradeable&#45;&gt;IERC1967Upgradeable -->
<g id="edge16" class="edge" data-name="ERC1967UpgradeUpgradeable-&gt;IERC1967Upgradeable">

<path fill="none" stroke="black" d="M1226.11,-143.7C1226.11,-136.41 1226.11,-127.73 1226.11,-119.54" style=""/>
<polygon fill="black" stroke="black" points="1229.61,-119.62 1226.11,-109.62 1222.61,-119.62 1229.61,-119.62" style=""/>
</g>
<!-- IBeaconUpgradeable -->
<g id="node17" class="node" pointer-events="visible" data-name="IBeaconUpgradeable">

<ellipse fill="none" stroke="black" cx="2150.11" cy="-306" rx="92.58" ry="18" style=""/>
<text text-anchor="middle" x="2150.11" y="-301.8" font-family="Times,serif" font-size="14.00" style="">IBeaconUpgradeable</text>
</g>
<!-- StorageSlotUpgradeable -->
<g id="node18" class="node" pointer-events="visible" data-name="StorageSlotUpgradeable">

<ellipse fill="none" stroke="black" cx="2386.11" cy="-306" rx="105.36" ry="18" style=""/>
<text text-anchor="middle" x="2386.11" y="-301.8" font-family="Times,serif" font-size="14.00" style="">StorageSlotUpgradeable</text>
</g>
<!-- ERC20 -->
<g id="node19" class="node" pointer-events="visible" data-name="ERC20">

<ellipse fill="none" stroke="black" cx="1531.11" cy="-162" rx="39.45" ry="18" style=""/>
<text text-anchor="middle" x="1531.11" y="-157.8" font-family="Times,serif" font-size="14.00" style="">ERC20</text>
</g>
<!-- Context -->
<g id="node20" class="node" pointer-events="visible" data-name="Context">

<ellipse fill="none" stroke="black" cx="1872.11" cy="-90" rx="41.73" ry="18" style=""/>
<text text-anchor="middle" x="1872.11" y="-85.8" font-family="Times,serif" font-size="14.00" style="">Context</text>
</g>
<!-- ERC20&#45;&gt;Context -->
<g id="edge20" class="edge" data-name="ERC20-&gt;Context">

<path fill="none" stroke="black" d="M1568.56,-155.88C1624.17,-147.9 1731.63,-130.97 1821.11,-108 1824.02,-107.25 1827.01,-106.43 1830,-105.55" style=""/>
<polygon fill="black" stroke="black" points="1830.8,-108.97 1839.32,-102.67 1828.73,-102.28 1830.8,-108.97" style=""/>
</g>
<!-- IERC20 -->
<g id="node21" class="node" pointer-events="visible" data-name="IERC20">

<ellipse fill="none" stroke="black" cx="1469.11" cy="-18" rx="42.88" ry="18" style=""/>
<text text-anchor="middle" x="1469.11" y="-13.8" font-family="Times,serif" font-size="14.00" style="">IERC20</text>
</g>
<!-- ERC20&#45;&gt;IERC20 -->
<g id="edge21" class="edge" data-name="ERC20-&gt;IERC20">

<path fill="none" stroke="black" d="M1529.85,-143.84C1527.95,-125.33 1523.29,-95.38 1512.11,-72 1507.24,-61.79 1500.02,-51.83 1492.88,-43.35" style=""/>
<polygon fill="black" stroke="black" points="1495.54,-41.07 1486.29,-35.91 1490.3,-45.72 1495.54,-41.07" style=""/>
</g>
<!-- IERC20Metadata -->
<g id="node22" class="node" pointer-events="visible" data-name="IERC20Metadata">

<ellipse fill="none" stroke="black" cx="1424.11" cy="-90" rx="78.73" ry="18" style=""/>
<text text-anchor="middle" x="1424.11" y="-85.8" font-family="Times,serif" font-size="14.00" style="">IERC20Metadata</text>
</g>
<!-- ERC20&#45;&gt;IERC20Metadata -->
<g id="edge22" class="edge" data-name="ERC20-&gt;IERC20Metadata">

<path fill="none" stroke="black" d="M1509.2,-146.67C1494.69,-137.17 1475.34,-124.51 1458.76,-113.67" style=""/>
<polygon fill="black" stroke="black" points="1460.93,-110.9 1450.64,-108.36 1457.1,-116.76 1460.93,-110.9" style=""/>
</g>
<!-- IERC20Metadata&#45;&gt;IERC20 -->
<g id="edge23" class="edge" data-name="IERC20Metadata-&gt;IERC20">

<path fill="none" stroke="black" d="M1435.24,-71.7C1440.38,-63.7 1446.6,-54.02 1452.3,-45.15" style=""/>
<polygon fill="black" stroke="black" points="1455.15,-47.2 1457.61,-36.9 1449.26,-43.41 1455.15,-47.2" style=""/>
</g>
<!-- ECDSA -->
<g id="node23" class="node" pointer-events="visible" data-name="ECDSA">

<ellipse fill="none" stroke="black" cx="2850.11" cy="-306" rx="42.89" ry="18" style=""/>
<text text-anchor="middle" x="2850.11" y="-301.8" font-family="Times,serif" font-size="14.00" style="">ECDSA</text>
</g>
<!-- Strings -->
<g id="node24" class="node" pointer-events="visible" data-name="Strings">

<ellipse fill="none" stroke="black" cx="2949.11" cy="-306" rx="38.31" ry="18" style=""/>
<text text-anchor="middle" x="2949.11" y="-301.8" font-family="Times,serif" font-size="14.00" style="">Strings</text>
</g>
<!-- Counters -->
<g id="node25" class="node" pointer-events="visible" data-name="Counters">

<ellipse fill="none" stroke="black" cx="3051.11" cy="-306" rx="45.81" ry="18" style=""/>
<text text-anchor="middle" x="3051.11" y="-301.8" font-family="Times,serif" font-size="14.00" style="">Counters</text>
</g>
<!-- Math -->
<g id="node26" class="node" pointer-events="visible" data-name="Math">

<ellipse fill="none" stroke="black" cx="3146.11" cy="-306" rx="31.34" ry="18" style=""/>
<text text-anchor="middle" x="3146.11" y="-301.8" font-family="Times,serif" font-size="14.00" style="">Math</text>
</g>
<!-- AccessControl -->
<g id="node27" class="node" pointer-events="visible" data-name="AccessControl">

<ellipse fill="none" stroke="black" cx="2003.11" cy="-162" rx="67.79" ry="18" style=""/>
<text text-anchor="middle" x="2003.11" y="-157.8" font-family="Times,serif" font-size="14.00" style="">AccessControl</text>
</g>
<!-- AccessControl&#45;&gt;Context -->
<g id="edge24" class="edge" data-name="AccessControl-&gt;Context">

<path fill="none" stroke="black" d="M1974.04,-145.46C1954.44,-134.99 1928.45,-121.1 1907.63,-109.98" style=""/>
<polygon fill="black" stroke="black" points="1909.37,-106.94 1898.9,-105.31 1906.07,-113.11 1909.37,-106.94" style=""/>
</g>
<!-- IAccessControl -->
<g id="node28" class="node" pointer-events="visible" data-name="IAccessControl">

<ellipse fill="none" stroke="black" cx="2003.11" cy="-90" rx="71.22" ry="18" style=""/>
<text text-anchor="middle" x="2003.11" y="-85.8" font-family="Times,serif" font-size="14.00" style="">IAccessControl</text>
</g>
<!-- AccessControl&#45;&gt;IAccessControl -->
<g id="edge25" class="edge" data-name="AccessControl-&gt;IAccessControl">

<path fill="none" stroke="black" d="M2003.11,-143.7C2003.11,-136.41 2003.11,-127.73 2003.11,-119.54" style=""/>
<polygon fill="black" stroke="black" points="2006.61,-119.62 2003.11,-109.62 1999.61,-119.62 2006.61,-119.62" style=""/>
</g>
<!-- ERC165 -->
<g id="node29" class="node" pointer-events="visible" data-name="ERC165">

<ellipse fill="none" stroke="black" cx="2136.11" cy="-90" rx="44.11" ry="18" style=""/>
<text text-anchor="middle" x="2136.11" y="-85.8" font-family="Times,serif" font-size="14.00" style="">ERC165</text>
</g>
<!-- AccessControl&#45;&gt;ERC165 -->
<g id="edge26" class="edge" data-name="AccessControl-&gt;ERC165">

<path fill="none" stroke="black" d="M2032.63,-145.46C2052.49,-135.01 2078.81,-121.16 2099.93,-110.04" style=""/>
<polygon fill="black" stroke="black" points="2101.27,-113.29 2108.49,-105.54 2098.01,-107.1 2101.27,-113.29" style=""/>
</g>
<!-- IERC165 -->
<g id="node30" class="node" pointer-events="visible" data-name="IERC165">

<ellipse fill="none" stroke="black" cx="2466.11" cy="-18" rx="47.54" ry="18" style=""/>
<text text-anchor="middle" x="2466.11" y="-13.8" font-family="Times,serif" font-size="14.00" style="">IERC165</text>
</g>
<!-- ERC165&#45;&gt;IERC165 -->
<g id="edge27" class="edge" data-name="ERC165-&gt;IERC165">

<path fill="none" stroke="black" d="M2169.3,-77.68C2175.83,-75.64 2182.65,-73.65 2189.11,-72 2265.46,-52.53 2355.27,-36.6 2411.46,-27.45" style=""/>
<polygon fill="black" stroke="black" points="2411.76,-30.94 2421.08,-25.89 2410.65,-24.03 2411.76,-30.94" style=""/>
</g>
<!-- Pausable -->
<g id="node31" class="node" pointer-events="visible" data-name="Pausable">

<ellipse fill="none" stroke="black" cx="1872.11" cy="-162" rx="45.23" ry="18" style=""/>
<text text-anchor="middle" x="1872.11" y="-157.8" font-family="Times,serif" font-size="14.00" style="">Pausable</text>
</g>
<!-- Pausable&#45;&gt;Context -->
<g id="edge28" class="edge" data-name="Pausable-&gt;Context">

<path fill="none" stroke="black" d="M1872.11,-143.7C1872.11,-136.41 1872.11,-127.73 1872.11,-119.54" style=""/>
<polygon fill="black" stroke="black" points="1875.61,-119.62 1872.11,-109.62 1868.61,-119.62 1875.61,-119.62" style=""/>
</g>
<!-- ERC20Votes -->
<g id="node32" class="node" pointer-events="visible" data-name="ERC20Votes">

<ellipse fill="none" stroke="black" cx="1747.11" cy="-162" rx="62.01" ry="18" style=""/>
<text text-anchor="middle" x="1747.11" y="-157.8" font-family="Times,serif" font-size="14.00" style="">ERC20Votes</text>
</g>
<!-- ERC20Permit -->
<g id="node33" class="node" pointer-events="visible" data-name="ERC20Permit">

<ellipse fill="none" stroke="black" cx="1747.11" cy="-90" rx="65.45" ry="18" style=""/>
<text text-anchor="middle" x="1747.11" y="-85.8" font-family="Times,serif" font-size="14.00" style="">ERC20Permit</text>
</g>
<!-- ERC20Votes&#45;&gt;ERC20Permit -->
<g id="edge29" class="edge" data-name="ERC20Votes-&gt;ERC20Permit">

<path fill="none" stroke="black" d="M1747.11,-143.7C1747.11,-136.41 1747.11,-127.73 1747.11,-119.54" style=""/>
<polygon fill="black" stroke="black" points="1750.61,-119.62 1747.11,-109.62 1743.61,-119.62 1750.61,-119.62" style=""/>
</g>
<!-- IERC5805 -->
<g id="node34" class="node" pointer-events="visible" data-name="IERC5805">

<ellipse fill="none" stroke="black" cx="1611.11" cy="-90" rx="52.2" ry="18" style=""/>
<text text-anchor="middle" x="1611.11" y="-85.8" font-family="Times,serif" font-size="14.00" style="">IERC5805</text>
</g>
<!-- ERC20Votes&#45;&gt;IERC5805 -->
<g id="edge30" class="edge" data-name="ERC20Votes-&gt;IERC5805">

<path fill="none" stroke="black" d="M1717.6,-145.81C1697.6,-135.51 1670.96,-121.8 1649.34,-110.67" style=""/>
<polygon fill="black" stroke="black" points="1651.01,-107.6 1640.52,-106.13 1647.81,-113.82 1651.01,-107.6" style=""/>
</g>
<!-- IVotes -->
<g id="node35" class="node" pointer-events="visible" data-name="IVotes">

<ellipse fill="none" stroke="black" cx="1611.11" cy="-18" rx="36.57" ry="18" style=""/>
<text text-anchor="middle" x="1611.11" y="-13.8" font-family="Times,serif" font-size="14.00" style="">IVotes</text>
</g>
<!-- IERC5805&#45;&gt;IVotes -->
<g id="edge49" class="edge" data-name="IERC5805-&gt;IVotes">

<path fill="none" stroke="black" d="M1611.11,-71.7C1611.11,-64.41 1611.11,-55.73 1611.11,-47.54" style=""/>
<polygon fill="black" stroke="black" points="1614.61,-47.62 1611.11,-37.62 1607.61,-47.62 1614.61,-47.62" style=""/>
</g>
<!-- IERC6372 -->
<g id="node49" class="node" pointer-events="visible" data-name="IERC6372">

<ellipse fill="none" stroke="black" cx="2033.11" cy="-18" rx="52.2" ry="18" style=""/>
<text text-anchor="middle" x="2033.11" y="-13.8" font-family="Times,serif" font-size="14.00" style="">IERC6372</text>
</g>
<!-- IERC5805&#45;&gt;IERC6372 -->
<g id="edge48" class="edge" data-name="IERC5805-&gt;IERC6372">

<path fill="none" stroke="black" d="M1649.97,-77.57C1657.6,-75.55 1665.58,-73.58 1673.11,-72 1777.58,-50.07 1900.97,-34 1972.79,-25.61" style=""/>
<polygon fill="black" stroke="black" points="1972.83,-29.13 1982.36,-24.5 1972.03,-22.18 1972.83,-29.13" style=""/>
</g>
<!-- SafeCast -->
<g id="node36" class="node" pointer-events="visible" data-name="SafeCast">

<ellipse fill="none" stroke="black" cx="3241.11" cy="-306" rx="45.23" ry="18" style=""/>
<text text-anchor="middle" x="3241.11" y="-301.8" font-family="Times,serif" font-size="14.00" style="">SafeCast</text>
</g>
<!-- TimelockController -->
<g id="node37" class="node" pointer-events="visible" data-name="TimelockController">

<ellipse fill="none" stroke="black" cx="2060.11" cy="-234" rx="87.97" ry="18" style=""/>
<text text-anchor="middle" x="2060.11" y="-229.8" font-family="Times,serif" font-size="14.00" style="">TimelockController</text>
</g>
<!-- TimelockController&#45;&gt;AccessControl -->
<g id="edge31" class="edge" data-name="TimelockController-&gt;AccessControl">

<path fill="none" stroke="black" d="M2046.32,-216.05C2039.6,-207.8 2031.37,-197.7 2023.91,-188.54" style=""/>
<polygon fill="black" stroke="black" points="2026.77,-186.51 2017.74,-180.96 2021.34,-190.93 2026.77,-186.51" style=""/>
</g>
<!-- IERC721Receiver -->
<g id="node38" class="node" pointer-events="visible" data-name="IERC721Receiver">

<ellipse fill="none" stroke="black" cx="2280.11" cy="-90" rx="81.66" ry="18" style=""/>
<text text-anchor="middle" x="2280.11" y="-85.8" font-family="Times,serif" font-size="14.00" style="">IERC721Receiver</text>
</g>
<!-- TimelockController&#45;&gt;IERC721Receiver -->
<g id="edge32" class="edge" data-name="TimelockController-&gt;IERC721Receiver">

<path fill="none" stroke="black" d="M2085.78,-216.43C2125.19,-190.99 2200.7,-142.26 2245.1,-113.6" style=""/>
<polygon fill="black" stroke="black" points="2246.84,-116.65 2253.34,-108.28 2243.04,-110.76 2246.84,-116.65" style=""/>
</g>
<!-- IERC1155Receiver -->
<g id="node39" class="node" pointer-events="visible" data-name="IERC1155Receiver">

<ellipse fill="none" stroke="black" cx="2466.11" cy="-90" rx="86.82" ry="18" style=""/>
<text text-anchor="middle" x="2466.11" y="-85.8" font-family="Times,serif" font-size="14.00" style="">IERC1155Receiver</text>
</g>
<!-- TimelockController&#45;&gt;IERC1155Receiver -->
<g id="edge33" class="edge" data-name="TimelockController-&gt;IERC1155Receiver">

<path fill="none" stroke="black" d="M2103.18,-217.94C2177.89,-191.81 2331.29,-138.15 2412.67,-109.69" style=""/>
<polygon fill="black" stroke="black" points="2413.47,-113.12 2421.76,-106.51 2411.16,-106.51 2413.47,-113.12" style=""/>
</g>
<!-- IERC1155Receiver&#45;&gt;IERC165 -->
<g id="edge34" class="edge" data-name="IERC1155Receiver-&gt;IERC165">

<path fill="none" stroke="black" d="M2466.11,-71.7C2466.11,-64.41 2466.11,-55.73 2466.11,-47.54" style=""/>
<polygon fill="black" stroke="black" points="2469.61,-47.62 2466.11,-37.62 2462.61,-47.62 2469.61,-47.62" style=""/>
</g>
<!-- GovernorSettings -->
<g id="node40" class="node" pointer-events="visible" data-name="GovernorSettings">

<ellipse fill="none" stroke="black" cx="2245.11" cy="-234" rx="79.33" ry="18" style=""/>
<text text-anchor="middle" x="2245.11" y="-229.8" font-family="Times,serif" font-size="14.00" style="">GovernorSettings</text>
</g>
<!-- Governor -->
<g id="node41" class="node" pointer-events="visible" data-name="Governor">

<ellipse fill="none" stroke="black" cx="2460.11" cy="-162" rx="48.08" ry="18" style=""/>
<text text-anchor="middle" x="2460.11" y="-157.8" font-family="Times,serif" font-size="14.00" style="">Governor</text>
</g>
<!-- GovernorSettings&#45;&gt;Governor -->
<g id="edge35" class="edge" data-name="GovernorSettings-&gt;Governor">

<path fill="none" stroke="black" d="M2289.14,-218.67C2325.59,-206.8 2377.22,-189.99 2414.18,-177.95" style=""/>
<polygon fill="black" stroke="black" points="2414.81,-181.43 2423.23,-175.01 2412.64,-174.78 2414.81,-181.43" style=""/>
</g>
<!-- Governor&#45;&gt;Context -->
<g id="edge36" class="edge" data-name="Governor-&gt;Context">

<path fill="none" stroke="black" d="M2412.16,-159.85C2317.6,-156.79 2100.86,-145.9 1923.11,-108 1920.14,-107.37 1917.09,-106.62 1914.04,-105.79" style=""/>
<polygon fill="black" stroke="black" points="1915.13,-102.46 1904.55,-102.98 1913.14,-109.18 1915.13,-102.46" style=""/>
</g>
<!-- Governor&#45;&gt;ERC165 -->
<g id="edge37" class="edge" data-name="Governor-&gt;ERC165">

<path fill="none" stroke="black" d="M2416.58,-154.11C2362.75,-145.21 2268.51,-128.42 2189.11,-108 2186.19,-107.25 2183.19,-106.43 2180.17,-105.56" style=""/>
<polygon fill="black" stroke="black" points="2181.34,-102.26 2170.75,-102.74 2179.33,-108.96 2181.34,-102.26" style=""/>
</g>
<!-- Governor&#45;&gt;IERC721Receiver -->
<g id="edge40" class="edge" data-name="Governor-&gt;IERC721Receiver">

<path fill="none" stroke="black" d="M2427.52,-148.32C2400.24,-137.72 2360.89,-122.41 2329.7,-110.28" style=""/>
<polygon fill="black" stroke="black" points="2331.05,-107.05 2320.46,-106.69 2328.51,-113.58 2331.05,-107.05" style=""/>
</g>
<!-- Governor&#45;&gt;IERC1155Receiver -->
<g id="edge41" class="edge" data-name="Governor-&gt;IERC1155Receiver">

<path fill="none" stroke="black" d="M2461.6,-143.7C2462.22,-136.41 2462.97,-127.73 2463.67,-119.54" style=""/>
<polygon fill="black" stroke="black" points="2467.15,-119.87 2464.52,-109.61 2460.18,-119.28 2467.15,-119.87" style=""/>
</g>
<!-- EIP712 -->
<g id="node42" class="node" pointer-events="visible" data-name="EIP712">

<ellipse fill="none" stroke="black" cx="2731.11" cy="-90" rx="40.01" ry="18" style=""/>
<text text-anchor="middle" x="2731.11" y="-85.8" font-family="Times,serif" font-size="14.00" style="">EIP712</text>
</g>
<!-- Governor&#45;&gt;EIP712 -->
<g id="edge38" class="edge" data-name="Governor-&gt;EIP712">

<path fill="none" stroke="black" d="M2501.35,-152.44C2546.17,-142.85 2619.74,-126.22 2682.11,-108 2684.67,-107.25 2687.28,-106.45 2689.91,-105.62" style=""/>
<polygon fill="black" stroke="black" points="2690.84,-109 2699.25,-102.56 2688.65,-102.35 2690.84,-109" style=""/>
</g>
<!-- IGovernor -->
<g id="node43" class="node" pointer-events="visible" data-name="IGovernor">

<ellipse fill="none" stroke="black" cx="2622.11" cy="-90" rx="51.02" ry="18" style=""/>
<text text-anchor="middle" x="2622.11" y="-85.8" font-family="Times,serif" font-size="14.00" style="">IGovernor</text>
</g>
<!-- Governor&#45;&gt;IGovernor -->
<g id="edge39" class="edge" data-name="Governor-&gt;IGovernor">

<path fill="none" stroke="black" d="M2490.59,-147.83C2515.94,-136.88 2552.3,-121.17 2580.36,-109.04" style=""/>
<polygon fill="black" stroke="black" points="2581.49,-112.36 2589.29,-105.19 2578.72,-105.94 2581.49,-112.36" style=""/>
</g>
<!-- IERC5267 -->
<g id="node44" class="node" pointer-events="visible" data-name="IERC5267">

<ellipse fill="none" stroke="black" cx="2731.11" cy="-18" rx="52.2" ry="18" style=""/>
<text text-anchor="middle" x="2731.11" y="-13.8" font-family="Times,serif" font-size="14.00" style="">IERC5267</text>
</g>
<!-- EIP712&#45;&gt;IERC5267 -->
<g id="edge42" class="edge" data-name="EIP712-&gt;IERC5267">

<path fill="none" stroke="black" d="M2731.11,-71.7C2731.11,-64.41 2731.11,-55.73 2731.11,-47.54" style=""/>
<polygon fill="black" stroke="black" points="2734.61,-47.62 2731.11,-37.62 2727.61,-47.62 2734.61,-47.62" style=""/>
</g>
<!-- IGovernor&#45;&gt;IERC165 -->
<g id="edge43" class="edge" data-name="IGovernor-&gt;IERC165">

<path fill="none" stroke="black" d="M2591.67,-75.34C2567.24,-64.38 2532.76,-48.91 2506.11,-36.95" style=""/>
<polygon fill="black" stroke="black" points="2507.89,-33.91 2497.34,-33.01 2505.03,-40.3 2507.89,-33.91" style=""/>
</g>
<!-- IGovernor&#45;&gt;IERC6372 -->
<g id="edge44" class="edge" data-name="IGovernor-&gt;IERC6372">

<path fill="none" stroke="black" d="M2584.91,-77.36C2577.42,-75.33 2569.56,-73.42 2562.11,-72 2395.74,-40.35 2196.11,-26.84 2096.36,-21.73" style=""/>
<polygon fill="black" stroke="black" points="2096.66,-18.24 2086.5,-21.24 2096.31,-25.23 2096.66,-18.24" style=""/>
</g>
<!-- ShortStrings -->
<g id="node45" class="node" pointer-events="visible" data-name="ShortStrings">

<ellipse fill="none" stroke="black" cx="3364.11" cy="-306" rx="59.16" ry="18" style=""/>
<text text-anchor="middle" x="3364.11" y="-301.8" font-family="Times,serif" font-size="14.00" style="">ShortStrings</text>
</g>
<!-- StorageSlot -->
<g id="node46" class="node" pointer-events="visible" data-name="StorageSlot">

<ellipse fill="none" stroke="black" cx="3497.11" cy="-306" rx="56.2" ry="18" style=""/>
<text text-anchor="middle" x="3497.11" y="-301.8" font-family="Times,serif" font-size="14.00" style="">StorageSlot</text>
</g>
<!-- DoubleEndedQueue -->
<g id="node47" class="node" pointer-events="visible" data-name="DoubleEndedQueue">

<ellipse fill="none" stroke="black" cx="3660.11" cy="-306" rx="89.18" ry="18" style=""/>
<text text-anchor="middle" x="3660.11" y="-301.8" font-family="Times,serif" font-size="14.00" style="">DoubleEndedQueue</text>
</g>
<!-- Address -->
<g id="node48" class="node" pointer-events="visible" data-name="Address">

<ellipse fill="none" stroke="black" cx="3810.11" cy="-306" rx="42.87" ry="18" style=""/>
<text text-anchor="middle" x="3810.11" y="-301.8" font-family="Times,serif" font-size="14.00" style="">Address</text>
</g>
<!-- GovernorCountingSimple -->
<g id="node50" class="node" pointer-events="visible" data-name="GovernorCountingSimple">

<ellipse fill="none" stroke="black" cx="2454.11" cy="-234" rx="111.21" ry="18" style=""/>
<text text-anchor="middle" x="2454.11" y="-229.8" font-family="Times,serif" font-size="14.00" style="">GovernorCountingSimple</text>
</g>
<!-- GovernorCountingSimple&#45;&gt;Governor -->
<g id="edge45" class="edge" data-name="GovernorCountingSimple-&gt;Governor">

<path fill="none" stroke="black" d="M2455.6,-215.7C2456.22,-208.41 2456.97,-199.73 2457.67,-191.54" style=""/>
<polygon fill="black" stroke="black" points="2461.15,-191.87 2458.52,-181.61 2454.18,-191.28 2461.15,-191.87" style=""/>
</g>
<!-- GovernorVotesQuorumFraction -->
<g id="node51" class="node" pointer-events="visible" data-name="GovernorVotesQuorumFraction">

<ellipse fill="none" stroke="black" cx="2654.11" cy="-306" rx="134.88" ry="18" style=""/>
<text text-anchor="middle" x="2654.11" y="-301.8" font-family="Times,serif" font-size="14.00" style="">GovernorVotesQuorumFraction</text>
</g>
<!-- GovernorVotes -->
<g id="node52" class="node" pointer-events="visible" data-name="GovernorVotes">

<ellipse fill="none" stroke="black" cx="2654.11" cy="-234" rx="70.64" ry="18" style=""/>
<text text-anchor="middle" x="2654.11" y="-229.8" font-family="Times,serif" font-size="14.00" style="">GovernorVotes</text>
</g>
<!-- GovernorVotesQuorumFraction&#45;&gt;GovernorVotes -->
<g id="edge46" class="edge" data-name="GovernorVotesQuorumFraction-&gt;GovernorVotes">

<path fill="none" stroke="black" d="M2654.11,-287.7C2654.11,-280.41 2654.11,-271.73 2654.11,-263.54" style=""/>
<polygon fill="black" stroke="black" points="2657.61,-263.62 2654.11,-253.62 2650.61,-263.62 2657.61,-263.62" style=""/>
</g>
<!-- GovernorVotes&#45;&gt;Governor -->
<g id="edge47" class="edge" data-name="GovernorVotes-&gt;Governor">

<path fill="none" stroke="black" d="M2614.39,-218.67C2582.52,-207.17 2537.8,-191.03 2504.7,-179.09" style=""/>
<polygon fill="black" stroke="black" points="2505.98,-175.83 2495.39,-175.73 2503.6,-182.41 2505.98,-175.83" style=""/>
</g>
<!-- Checkpoints -->
<g id="node53" class="node" pointer-events="visible" data-name="Checkpoints">

<ellipse fill="none" stroke="black" cx="3930.11" cy="-306" rx="59.13" ry="18" style=""/>
<text text-anchor="middle" x="3930.11" y="-301.8" font-family="Times,serif" font-size="14.00" style="">Checkpoints</text>
</g>
<!-- GovernorTimelockControl -->
<g id="node54" class="node" pointer-events="visible" data-name="GovernorTimelockControl">

<ellipse fill="none" stroke="black" cx="2857.11" cy="-234" rx="114.61" ry="18" style=""/>
<text text-anchor="middle" x="2857.11" y="-229.8" font-family="Times,serif" font-size="14.00" style="">GovernorTimelockControl</text>
</g>
<!-- GovernorTimelockControl&#45;&gt;Governor -->
<g id="edge51" class="edge" data-name="GovernorTimelockControl-&gt;Governor">

<path fill="none" stroke="black" d="M2782.91,-219.92C2704.78,-206.14 2583.67,-184.79 2514.14,-172.53" style=""/>
<polygon fill="black" stroke="black" points="2514.97,-169.12 2504.52,-170.83 2513.76,-176.01 2514.97,-169.12" style=""/>
</g>
<!-- IGovernorTimelock -->
<g id="node55" class="node" pointer-events="visible" data-name="IGovernorTimelock">

<ellipse fill="none" stroke="black" cx="2739.11" cy="-162" rx="88.03" ry="18" style=""/>
<text text-anchor="middle" x="2739.11" y="-157.8" font-family="Times,serif" font-size="14.00" style="">IGovernorTimelock</text>
</g>
<!-- GovernorTimelockControl&#45;&gt;IGovernorTimelock -->
<g id="edge50" class="edge" data-name="GovernorTimelockControl-&gt;IGovernorTimelock">

<path fill="none" stroke="black" d="M2828.85,-216.23C2813.12,-206.9 2793.34,-195.17 2776.36,-185.1" style=""/>
<polygon fill="black" stroke="black" points="2778.43,-182.25 2768.04,-180.16 2774.86,-188.27 2778.43,-182.25" style=""/>
</g>
<!-- IGovernorTimelock&#45;&gt;IGovernor -->
<g id="edge52" class="edge" data-name="IGovernorTimelock-&gt;IGovernor">

<path fill="none" stroke="black" d="M2711.68,-144.59C2695.42,-134.86 2674.65,-122.43 2657.2,-111.99" style=""/>
<polygon fill="black" stroke="black" points="2659.05,-109.02 2648.67,-106.89 2655.46,-115.03 2659.05,-109.02" style=""/>
</g>
<!-- EarthfastBilling -->
<g id="node56" class="node" pointer-events="visible" data-name="EarthfastBilling">

<ellipse fill="none" stroke="black" cx="748.11" cy="-306" rx="72.94" ry="18" style=""/>
<text text-anchor="middle" x="748.11" y="-301.8" font-family="Times,serif" font-size="14.00" style="">EarthfastBilling</text>
</g>
<!-- EarthfastBilling&#45;&gt;AccessControlUpgradeable -->
<g id="edge53" class="edge" data-name="EarthfastBilling-&gt;AccessControlUpgradeable">

<path fill="none" stroke="black" d="M699.64,-292.24C657.88,-281.25 597.14,-265.27 550.45,-252.98" style=""/>
<polygon fill="black" stroke="black" points="551.54,-249.65 540.98,-250.49 549.76,-256.42 551.54,-249.65" style=""/>
</g>
<!-- EarthfastBilling&#45;&gt;PausableUpgradeable -->
<g id="edge54" class="edge" data-name="EarthfastBilling-&gt;PausableUpgradeable">

<path fill="none" stroke="black" d="M739.22,-287.7C735.25,-279.98 730.48,-270.71 726.06,-262.11" style=""/>
<polygon fill="black" stroke="black" points="729.29,-260.74 721.6,-253.45 723.06,-263.94 729.29,-260.74" style=""/>
</g>
<!-- EarthfastBilling&#45;&gt;UUPSUpgradeable -->
<g id="edge55" class="edge" data-name="EarthfastBilling-&gt;UUPSUpgradeable">

<path fill="none" stroke="black" d="M783.27,-289.81C806.72,-279.68 837.81,-266.24 863.35,-255.21" style=""/>
<polygon fill="black" stroke="black" points="864.73,-258.42 872.52,-251.24 861.95,-252 864.73,-258.42" style=""/>
</g>
<!-- EarthfastNodes -->
<g id="node57" class="node" pointer-events="visible" data-name="EarthfastNodes">

<ellipse fill="none" stroke="black" cx="909.11" cy="-306" rx="70.63" ry="18" style=""/>
<text text-anchor="middle" x="909.11" y="-301.8" font-family="Times,serif" font-size="14.00" style="">EarthfastNodes</text>
</g>
<!-- EarthfastNodes&#45;&gt;AccessControlUpgradeable -->
<g id="edge56" class="edge" data-name="EarthfastNodes-&gt;AccessControlUpgradeable">

<path fill="none" stroke="black" d="M857.36,-293.39C848.3,-291.49 838.95,-289.62 830.11,-288 745.67,-272.5 649.11,-258.05 579.16,-248.17" style=""/>
<polygon fill="black" stroke="black" points="580.05,-244.76 569.66,-246.83 579.08,-251.69 580.05,-244.76" style=""/>
</g>
<!-- EarthfastNodes&#45;&gt;PausableUpgradeable -->
<g id="edge57" class="edge" data-name="EarthfastNodes-&gt;PausableUpgradeable">

<path fill="none" stroke="black" d="M869.25,-290.83C839.55,-280.28 798.67,-265.76 766.06,-254.17" style=""/>
<polygon fill="black" stroke="black" points="767.36,-250.92 756.77,-250.87 765.02,-257.51 767.36,-250.92" style=""/>
</g>
<!-- EarthfastNodes&#45;&gt;UUPSUpgradeable -->
<g id="edge58" class="edge" data-name="EarthfastNodes-&gt;UUPSUpgradeable">

<path fill="none" stroke="black" d="M909.36,-287.7C909.47,-280.41 909.59,-271.73 909.71,-263.54" style=""/>
<polygon fill="black" stroke="black" points="913.21,-263.67 909.85,-253.62 906.21,-263.57 913.21,-263.67" style=""/>
</g>
<!-- EarthfastRegistry -->
<g id="node58" class="node" pointer-events="visible" data-name="EarthfastRegistry">

<ellipse fill="none" stroke="black" cx="392.11" cy="-306" rx="78.73" ry="18" style=""/>
<text text-anchor="middle" x="392.11" y="-301.8" font-family="Times,serif" font-size="14.00" style="">EarthfastRegistry</text>
</g>
<!-- EarthfastRegistry&#45;&gt;AccessControlUpgradeable -->
<g id="edge59" class="edge" data-name="EarthfastRegistry-&gt;AccessControlUpgradeable">

<path fill="none" stroke="black" d="M413.44,-288.41C424.82,-279.56 439.02,-268.52 451.55,-258.77" style=""/>
<polygon fill="black" stroke="black" points="453.37,-261.79 459.12,-252.89 449.08,-256.26 453.37,-261.79" style=""/>
</g>
<!-- EarthfastRegistry&#45;&gt;PausableUpgradeable -->
<g id="edge60" class="edge" data-name="EarthfastRegistry-&gt;PausableUpgradeable">

<path fill="none" stroke="black" d="M447.49,-292.89C501.01,-281.18 582.36,-263.38 640.72,-250.62" style=""/>
<polygon fill="black" stroke="black" points="641.21,-254.09 650.23,-248.54 639.71,-247.26 641.21,-254.09" style=""/>
</g>
<!-- EarthfastRegistry&#45;&gt;ReentrancyGuardUpgradeable -->
<g id="edge61" class="edge" data-name="EarthfastRegistry-&gt;ReentrancyGuardUpgradeable">

<path fill="none" stroke="black" d="M354.36,-289.81C329.56,-279.84 296.81,-266.66 269.64,-255.73" style=""/>
<polygon fill="black" stroke="black" points="271.13,-252.55 260.54,-252.07 268.51,-259.05 271.13,-252.55" style=""/>
</g>
<!-- EarthfastRegistry&#45;&gt;UUPSUpgradeable -->
<g id="edge62" class="edge" data-name="EarthfastRegistry-&gt;UUPSUpgradeable">

<path fill="none" stroke="black" d="M449.27,-293.24C459.52,-291.33 470.11,-289.5 480.11,-288 628.64,-265.74 667.46,-273.38 816.11,-252 823.01,-251.01 830.17,-249.88 837.33,-248.7" style=""/>
<polygon fill="black" stroke="black" points="837.77,-252.17 847.04,-247.05 836.59,-245.27 837.77,-252.17" style=""/>
</g>
<!-- EarthfastNodesImpl -->
<g id="node59" class="node" pointer-events="visible" data-name="EarthfastNodesImpl">

<ellipse fill="none" stroke="black" cx="4096.11" cy="-306" rx="88.61" ry="18" style=""/>
<text text-anchor="middle" x="4096.11" y="-301.8" font-family="Times,serif" font-size="14.00" style="">EarthfastNodesImpl</text>
</g>
<!-- EarthfastOperators -->
<g id="node60" class="node" pointer-events="visible" data-name="EarthfastOperators">

<ellipse fill="none" stroke="black" cx="573.11" cy="-306" rx="83.94" ry="18" style=""/>
<text text-anchor="middle" x="573.11" y="-301.8" font-family="Times,serif" font-size="14.00" style="">EarthfastOperators</text>
</g>
<!-- EarthfastOperators&#45;&gt;AccessControlUpgradeable -->
<g id="edge63" class="edge" data-name="EarthfastOperators-&gt;AccessControlUpgradeable">

<path fill="none" stroke="black" d="M551.55,-288.41C540.05,-279.56 525.69,-268.52 513.02,-258.77" style=""/>
<polygon fill="black" stroke="black" points="515.42,-256.2 505.36,-252.88 511.15,-261.75 515.42,-256.2" style=""/>
</g>
<!-- EarthfastOperators&#45;&gt;PausableUpgradeable -->
<g id="edge64" class="edge" data-name="EarthfastOperators-&gt;PausableUpgradeable">

<path fill="none" stroke="black" d="M605,-288.94C624.2,-279.27 648.88,-266.84 669.71,-256.35" style=""/>
<polygon fill="black" stroke="black" points="671.18,-259.53 678.54,-251.91 668.03,-253.28 671.18,-259.53" style=""/>
</g>
<!-- EarthfastOperators&#45;&gt;ReentrancyGuardUpgradeable -->
<g id="edge65" class="edge" data-name="EarthfastOperators-&gt;ReentrancyGuardUpgradeable">

<path fill="none" stroke="black" d="M512.89,-293.13C454.83,-281.68 366.46,-264.25 301.62,-251.46" style=""/>
<polygon fill="black" stroke="black" points="302.58,-248.09 292.09,-249.59 301.23,-254.96 302.58,-248.09" style=""/>
</g>
<!-- EarthfastOperators&#45;&gt;UUPSUpgradeable -->
<g id="edge66" class="edge" data-name="EarthfastOperators-&gt;UUPSUpgradeable">

<path fill="none" stroke="black" d="M631.82,-292.81C689.69,-280.79 778.17,-262.41 839.78,-249.61" style=""/>
<polygon fill="black" stroke="black" points="840.39,-253.06 849.47,-247.6 838.97,-246.2 840.39,-253.06" style=""/>
</g>
<!-- EarthfastReservations -->
<g id="node61" class="node" pointer-events="visible" data-name="EarthfastReservations">

<ellipse fill="none" stroke="black" cx="1093.11" cy="-306" rx="95.55" ry="18" style=""/>
<text text-anchor="middle" x="1093.11" y="-301.8" font-family="Times,serif" font-size="14.00" style="">EarthfastReservations</text>
</g>
<!-- EarthfastReservations&#45;&gt;AccessControlUpgradeable -->
<g id="edge67" class="edge" data-name="EarthfastReservations-&gt;AccessControlUpgradeable">

<path fill="none" stroke="black" d="M1024.4,-293.09C1012.65,-291.25 1000.55,-289.47 989.11,-288 820.42,-266.27 777.1,-271.37 608.11,-252 598.21,-250.86 587.88,-249.6 577.58,-248.29" style=""/>
<polygon fill="black" stroke="black" points="578.3,-244.85 567.94,-247.04 577.41,-251.8 578.3,-244.85" style=""/>
</g>
<!-- EarthfastReservations&#45;&gt;PausableUpgradeable -->
<g id="edge68" class="edge" data-name="EarthfastReservations-&gt;PausableUpgradeable">

<path fill="none" stroke="black" d="M1026.31,-292.73C960.31,-280.6 859.4,-262.06 789.83,-249.28" style=""/>
<polygon fill="black" stroke="black" points="790.48,-245.84 780.01,-247.47 789.21,-252.72 790.48,-245.84" style=""/>
</g>
<!-- EarthfastReservations&#45;&gt;UUPSUpgradeable -->
<g id="edge69" class="edge" data-name="EarthfastReservations-&gt;UUPSUpgradeable">

<path fill="none" stroke="black" d="M1052.05,-289.29C1025.04,-278.96 989.51,-265.37 960.76,-254.37" style=""/>
<polygon fill="black" stroke="black" points="962.11,-251.14 951.52,-250.84 959.61,-257.68 962.11,-251.14" style=""/>
</g>
<!-- EarthfastToken -->
<g id="node62" class="node" pointer-events="visible" data-name="EarthfastToken">

<ellipse fill="none" stroke="black" cx="1872.11" cy="-234" rx="70.63" ry="18" style=""/>
<text text-anchor="middle" x="1872.11" y="-229.8" font-family="Times,serif" font-size="14.00" style="">EarthfastToken</text>
</g>
<!-- EarthfastToken&#45;&gt;AccessControl -->
<g id="edge71" class="edge" data-name="EarthfastToken-&gt;AccessControl">

<path fill="none" stroke="black" d="M1901.51,-217.29C1919.89,-207.47 1943.77,-194.71 1963.76,-184.03" style=""/>
<polygon fill="black" stroke="black" points="1965.31,-187.17 1972.48,-179.37 1962.01,-181 1965.31,-187.17" style=""/>
</g>
<!-- EarthfastToken&#45;&gt;Pausable -->
<g id="edge72" class="edge" data-name="EarthfastToken-&gt;Pausable">

<path fill="none" stroke="black" d="M1872.11,-215.7C1872.11,-208.41 1872.11,-199.73 1872.11,-191.54" style=""/>
<polygon fill="black" stroke="black" points="1875.61,-191.62 1872.11,-181.62 1868.61,-191.62 1875.61,-191.62" style=""/>
</g>
<!-- EarthfastToken&#45;&gt;ERC20Votes -->
<g id="edge70" class="edge" data-name="EarthfastToken-&gt;ERC20Votes">

<path fill="none" stroke="black" d="M1843.75,-217.12C1826.17,-207.27 1803.38,-194.51 1784.35,-183.85" style=""/>
<polygon fill="black" stroke="black" points="1786.26,-180.91 1775.83,-179.08 1782.84,-187.02 1786.26,-180.91" style=""/>
</g>
</g>
</svg>